PathFileType	4	(X/Y/Z)	C:/Users/beibeiliu/ov580/test_trc/User3\sequence.30_training_dense_right.trc
DataRate	CameraRate	NumFrames	NumMarkers	Units	OrigDataRate	OrigDataStartFrame	OrigNumFrames
120	120	24	19	mm	120	150	239
Frame#	Time	ThumbCMC			ThumbMCP			ThumbIP			ThumbTip			IndexMCP			IndexPIP			IndexTip			MiddleMCP			MiddlePIP			MiddleTip			RingMCP			RingPIP			RingTip			PinkyMCP			PinkyPIP			PinkyTip			BackHand1			BackHand2			BackHand3	
		X0	Y0	Z0	X1	Y1	Z1	X2	Y2	Z2	X3	Y3	Z3	X4	Y4	Z4	X5	Y5	Z5	X6	Y6	Z6	X7	Y7	Z7	X8	Y8	Z8	X9	Y9	Z9	X10	Y10	Z10	X11	Y11	Z11	X12	Y12	Z12	X13	Y13	Z13	X14	Y14	Z14	X15	Y15	Z15	X16	Y16	Z16	X17	Y17	Z17	X18	Y18	Z18	
149	1.24167	120.917	-18.838	41.323	110.12	-25.5228	14.8248	95.3098	-27.0041	-16.8806	96.0047	-28.7798	-39.1564	116.091	24.6503	-23.2726	103.775	26.9296	-45.6904	93.656	29.3935	-68.6981	136.551	22.8625	-34.2616	127.582	13.2351	-64.0776	124.683	-16.3264	-87.5148	157.644	21.3503	-32.4017	156.465	21.4884	-58.0259	151.885	9.75223	-89.2862	187.396	12.7148	-24.2676	195.604	17.5259	-42.1986	202.877	25.118	-62.2819	170.947	18.4515	20.779	180.971	10.3769	47.2263	141.806	14.4876	39.5735	
150	1.25	122.65	-19.8824	41.3888	109.703	-25.9629	10.5183	100.015	-29.2685	-16.1662	96.1626	-31.0992	-41.1068	112.951	19.1436	-24.3102	100.106	19.7039	-47.3557	89.7288	16.157	-76.2816	137.131	21.6434	-37.8432	128.667	13.3149	-67.6934	123.702	-10.0426	-93.4658	159.959	20.289	-31.6847	156.288	23.6276	-61.7772	151.928	17.5029	-85.4146	185.485	11.067	-22.1634	194.433	15.7833	-38.7058	204.55	24.9805	-59.6635	169.149	19.1253	18.2547	177.62	11.18	45.3502	142.557	13.5574	37.3668	
151	1.25833	121.758	-20.243	38.6245	108.901	-29.8607	11.4438	104.293	-29.4064	-19.3132	103.469	-33.8008	-42.2088	112.84	12.439	-26.7319	105.696	9.28522	-52.4317	96.6871	0.537904	-80.6946	139.248	20.4583	-36.0008	129.251	17.1218	-65.4909	120.462	2.69311	-94.1223	162.61	21.5889	-36.5674	158.91	24.8347	-61.3329	156.179	20.6057	-84.8347	190.931	9.75546	-21.6174	196.108	15.5601	-42.3131	205.258	21.5568	-63.344	168.86	17.0358	18.175	181.984	9.87896	47.6639	142.117	11.503	36.8047	
152	1.26667	126.493	-22.4463	38.6551	111.019	-31.9673	12.0789	102.534	-34.2475	-22.6325	105.72	-36.6764	-43.5775	117.676	7.37879	-30.6159	106.903	-0.672845	-56.4941	102.509	-14.2898	-79.9995	139.558	21.2766	-41.1943	129.496	19.3235	-66.467	126.611	13.9377	-97.6983	163.141	18.4775	-32.8345	157.876	23.5558	-56.0252	155.407	22.9615	-84.0052	187.921	6.82756	-23.6281	198.737	11.5973	-46.4003	203.301	16.0559	-63.5587	174.097	16.8417	17.3643	177.067	7.43482	47.5674	141.484	8.6545	37.6462	
153	1.275	125.623	-23.9519	40.7058	110.836	-32.606	10.2308	105.388	-35.2691	-23.4956	110.467	-40.9228	-45.1089	114.196	3.09591	-33.437	108.083	-6.2914	-58.8252	106.582	-22.2602	-80.2918	139.538	19.6993	-35.4145	133.402	23.0446	-68.1278	123.806	22.2721	-98.6482	161.544	18.8169	-35.568	160.561	22.8994	-60.0132	160.254	23.0488	-86.9187	188.92	4.68031	-26.5112	195.974	5.65948	-48.9707	199.253	8.33953	-71.2646	172.726	14.8878	14.7617	178.633	10.8646	42.3713	143.722	8.10312	36.044	
154	1.28333	127.748	-24.5359	38.4528	112.836	-33.3527	8.04167	111.103	-38.2138	-23.2365	118.519	-41.826	-47.2566	118.964	2.17659	-37.761	109.124	-8.41962	-62.29	109.408	-25.6812	-82.5765	142.969	19.9998	-38.4257	136.418	24.295	-64.2019	126.521	27.3699	-97.3828	166.141	14.9517	-33.9329	166.93	19.8499	-59.4386	160.746	19.5753	-87.036	191.406	-0.324355	-27.0921	195.861	-1.04403	-48.2427	200.809	-1.50588	-70.6162	172.151	10.6263	15.6754	182.401	7.56568	42.9357	142.235	9.05555	33.7082	
155	1.29167	129.666	-24.984	38.2078	114.544	-35.1234	6.77767	113.68	-40.4077	-25.8052	127.285	-43.0894	-45.4917	122.522	3.84724	-37.2056	114.88	-6.53292	-64.2686	109.239	-19.4826	-82.0197	142.502	21.1583	-39.0439	139.863	27.4264	-66.8928	130.388	30.6657	-97.2572	170.877	12.1503	-34.461	168.574	17.7193	-62.9273	164.499	12.2369	-91.5955	192.435	-2.13025	-26.683	196.349	-6.52811	-52.8909	196.548	-13.289	-75.7337	176.808	12.4124	11.6414	183.355	6.13466	42.291	146.289	6.94727	33.1714	
156	1.3	127.915	-25.2125	35.8397	118.419	-37.6056	8.15884	119.249	-43.3509	-23.4535	129.542	-46.9574	-45.2773	123.539	6.65749	-35.5471	115.573	1.43941	-64.6869	111.57	-10.5178	-84.4318	149.512	21.8867	-37.5419	140.606	28.7067	-60.4963	138.155	33.0719	-97.1068	169	13.4852	-37.5525	168.176	13.0071	-66.1151	166.455	0.995257	-91.6262	194.043	-4.60999	-27.6576	192.718	-10.2045	-51.2347	193.875	-25.519	-75.2622	177.04	10.6691	12.0592	181.964	4.97844	43.6254	148.058	9.42851	32.1595	
157	1.30833	128.411	-26.951	37.1162	120.243	-37.1028	1.74048	121.789	-44.1848	-28.4792	137.569	-47.6001	-47.2682	129.373	9.29254	-31.4641	116.076	10.0479	-60.2306	111.63	0.573985	-87.1972	151.138	24.3291	-36.8776	148.694	32.1127	-64.7429	145.047	33.3755	-97.3815	176.845	9.74943	-36.0975	173.079	8.72777	-64.1996	173.943	-11.9343	-88.4542	196.279	-5.9536	-27.7132	193.458	-14.8657	-50.946	192.092	-35.1616	-67.2653	180.231	9.95169	18.092	182.828	6.82786	46.03	146.606	7.52751	32.1634	
158	1.31667	130.543	-26.0244	31.3289	121.049	-40.6803	4.65325	125.201	-47.5185	-27.1123	138.565	-52.3778	-50.0571	131.778	14.4167	-31.316	118.675	18.4283	-54.4199	114.8	16.3865	-83.6888	158.003	23.3082	-32.888	153.54	33.367	-61.453	151.865	29.9568	-96.1663	177.2	7.95845	-36.1128	175.05	1.39327	-64.179	170.295	-28.5662	-82.3821	198.239	-7.71269	-27.8025	192.223	-21.8492	-51.5395	191.692	-47.2404	-59.3266	182.324	10.1867	13.2832	183.683	3.94003	43.3708	148.045	6.99867	31.0434	
159	1.325	130.488	-27.1522	35.8983	126.229	-39.2899	4.08834	124.874	-48.074	-23.0388	138.61	-52.9736	-49.2327	131.897	16.8041	-27.4342	123.119	25.4134	-48.8406	112.518	28.3787	-77.2616	159.698	21.7299	-30.1169	158.045	31.8618	-65.9034	154.718	23.2015	-94.3535	176.239	3.5614	-35.1119	175.478	-8.13941	-65.7816	172.762	-38.6637	-72.0716	194.927	-11.0495	-25.2108	193.193	-28.1929	-50.1539	182.548	-53.655	-50.3167	186.325	6.59336	18.0943	190.501	1.57183	43.5236	155.428	7.8548	30.4391	
160	1.33333	134.797	-25.835	33.4074	120.969	-41.0545	6.15961	117.815	-48.6177	-23.4526	131.05	-53.3024	-49.0094	131.744	18.1248	-22.5681	123.073	30.0723	-44.6797	112.82	37.3675	-73.5928	157.179	22.7553	-33.4935	152.981	27.8891	-65.7787	151.641	12.3062	-93.4305	174.641	0.567603	-39.8198	170.441	-16.3912	-63.8602	166.103	-49.937	-61.5387	194.738	-14.6561	-28.9518	188.117	-29.1581	-47.7041	181.361	-56.4131	-48.2254	184.843	5.60081	19.1892	191.607	0.507735	42.9231	152.564	5.83145	34.3409	
161	1.34167	132.106	-25.9703	38.8547	120.25	-38.5579	6.82863	116.867	-44.4991	-24.6662	124.308	-51.0282	-43.5333	131.24	18.882	-19.3974	122.247	32.6614	-42.8366	109.801	40.0734	-69.6744	153.816	21.13	-34.3084	153.709	22.4079	-63.8958	142.066	0.302654	-91.8029	173.026	-3.05666	-38.3106	167.515	-21.7541	-62.6858	161.846	-50.9936	-59.4521	191.212	-15.3247	-29.341	189.046	-30.6253	-49.7072	179.022	-56.5788	-53.1807	181.325	6.48908	15.899	189.786	0.179619	47.9002	152.878	7.61019	36.8283	
162	1.35	131.274	-24.0134	38.2322	117.005	-37.483	9.539	114.147	-43.5367	-18.9591	120.729	-50.135	-41.1706	129.993	17.2333	-18.4523	119.35	32.3786	-40.7546	104.365	39.2125	-61.3638	151.845	17.5485	-36.8046	143.602	15.3299	-67.0238	134.728	-17.9194	-88.8168	167.212	-4.17884	-39.3431	161.335	-21.4404	-62.7905	154.024	-55.2204	-57.4254	193.139	-14.6282	-27.8236	185.45	-26.0149	-52.0653	174.957	-50.431	-62.1775	183.925	5.0251	12.8347	191.68	0.570103	44.1357	150.286	6.7715	33.1948	
163	1.35833	128.115	-25.8786	42.3593	116.46	-36.3848	9.36444	112.688	-43.2046	-19.5413	116.2	-50.0009	-41.2335	120.912	20.4434	-19.6922	111.884	31.4652	-40.1818	99.3799	37.9542	-66.6036	144.367	14.579	-35.9064	139.077	6.16585	-68.2411	127.189	-27.0043	-79.2523	165.137	-3.70117	-39.9551	159.429	-22.1991	-63.9594	152.032	-52.0451	-62.8034	187.31	-14.3106	-30.1421	182.649	-21.5936	-53.0123	175.061	-39.6756	-73.5953	179.047	5.42839	14.9355	188.817	0.946883	41.2159	151.172	4.8097	37.3997	
164	1.36667	129.749	-26.0319	42.4477	113.923	-37.7438	13.2277	107.114	-42.6682	-17.9748	111.168	-49.3804	-36.5415	120.8	18.5546	-17.8964	102.059	30.386	-40.1635	90.8674	32.9256	-60.7891	137.403	11.4296	-38.094	126.995	-1.80206	-65.7291	122.223	-40.5314	-69.856	158.933	-2.36753	-39.5963	151.947	-18.7868	-63.5183	143.021	-50.5344	-65.7433	184.505	-13.1834	-29.5597	185.263	-19.5872	-52.8077	176.763	-29.6829	-78.2938	178.822	5.31508	13.9826	189.562	-1.93928	43.7697	150.25	4.20426	38.5382	
165	1.375	129.219	-25.9364	45.6058	111.257	-37.9327	15.7106	99.2551	-42.6592	-15.5304	103.481	-48.078	-36.7853	113.031	15.1682	-16.0557	96.261	25.3652	-40.9612	82.9661	25.6437	-60.4444	137.236	6.53191	-37.1127	122.671	-12.3258	-64.5987	119.975	-49.1158	-61.1874	156.882	-2.13585	-39.2611	144.304	-12.9119	-62.0126	138.549	-45.3872	-72.0937	177.219	-12.6166	-33.393	178.687	-16.4988	-51.3763	179.835	-22.5466	-77.9157	174.57	4.65812	16.778	187.434	-2.07239	39.2582	148.416	4.62055	37.5238	
166	1.38333	125.903	-24.5164	41.8955	108.93	-35.42	16.508	93.7311	-42.2285	-5.95026	91.7526	-46.5875	-28.1241	113.101	12.1692	-21.346	95.1169	17.2665	-45.1999	79.9243	16.0823	-64.6164	128.094	1.65546	-39.6961	114.757	-20.9054	-60.729	114.187	-59.7015	-50.0629	152.896	-2.61271	-38.2783	144.457	-14.4397	-65.722	133.917	-38.7106	-78.9405	176.009	-14.6794	-28.8277	180.164	-18.5782	-52.1253	176.96	-20.0223	-73.9697	170.165	2.8912	11.8601	184.222	-2.94991	37.0005	146.757	6.01948	36.8635	
167	1.39167	122.332	-24.2301	46.0248	105.862	-32.6661	21.3517	86.6345	-35.7178	-6.62088	81.144	-42.9879	-22.3715	106.928	9.6288	-22.1018	93.6594	10.3538	-43.3979	80.7907	6.16194	-70.409	125.503	-3.37585	-38.5779	114.935	-27.1098	-57.7934	115.96	-66.9758	-45.9565	152.296	-5.02244	-38.7614	140.721	-13.4327	-66.5899	133.739	-34.319	-84.1184	178.264	-17.3792	-30.9686	177.453	-19.2624	-51.1429	180.783	-20.9806	-74.3775	170.806	1.03445	10.5031	185.409	-3.15512	38.2405	147.872	6.20487	35.1496	
168	1.4	120.798	-24.7578	48.933	105.713	-30.6754	21.3509	87.4442	-32.9919	0.50566	74.8876	-36.3775	-17.1194	107.573	4.89248	-21.3539	94.1223	3.32162	-48.7875	81.6575	-0.379716	-68.949	125.553	-7.02706	-36.8629	113.364	-32.3004	-55.248	116.192	-68.7568	-42.3274	152.635	-7.38394	-40.0051	141.82	-15.2098	-68.2916	129.548	-31.7199	-87.2995	179.032	-18.1715	-34.6186	176.229	-19.09	-53.467	182.943	-17.5191	-73.0285	171.506	1.23291	12.2911	181.079	-2.41152	36.5934	148.008	3.25588	37.1069	
169	1.40833	121.449	-23.4874	48.4854	101.401	-28.3274	24.4158	83.7257	-29.8193	3.82291	65.3686	-33.0858	-11.6219	107.337	3.05708	-28.5963	92.8846	0.231514	-45.5355	79.9705	-3.53248	-66.4386	124.113	-8.62537	-37.2609	110.941	-37.9676	-54.7867	113.786	-73.0738	-41.4116	149.071	-8.29512	-38.7464	139.433	-15.1969	-66.3439	128.637	-29.833	-88.052	177.521	-17.3592	-34.2376	178.652	-19.1318	-49.536	180.13	-14.8232	-75.5658	170.756	2.38173	10.1939	179.124	-4.64456	41.6694	145.698	2.43183	37.3621	
170	1.41667	121.444	-21.6767	45.1129	98.875	-26.5879	25.9535	78.7314	-25.3481	2.11809	68.3215	-29.1064	-10.569	107.343	2.10281	-24.6356	94.0079	-2.02876	-45.2799	78.8623	-8.02652	-71.6839	126.227	-10.8237	-38.8627	110.381	-39.3881	-54.3357	113.367	-74.9175	-43.9116	146.467	-8.49868	-38.0845	140.626	-14.6246	-61.2868	131.258	-28.5426	-87.8961	175.359	-17.1252	-31.4909	176.537	-17.9336	-53.584	183.096	-16.35	-76.0825	169.474	0.0637177	9.79167	179.311	-3.20585	39.7409	146.745	2.18205	37.3892	
171	1.425	118.15	-19.9594	46.9295	102.388	-23.7161	26.8129	82.4384	-21.9528	2.41773	66.3441	-23.9185	-9.97321	106.065	1.15242	-26.3816	93.5421	-4.63787	-48.2434	80.3529	-12.9079	-70.2277	123.828	-13.0678	-40.3573	113.617	-39.6637	-55.7026	110.349	-75.7673	-48.6658	150.539	-10.1803	-37.7909	137.928	-16.6216	-63.2699	131.361	-29.8943	-88.6696	175.558	-17.3464	-32.6471	177.073	-19.8251	-48.3232	181.409	-16.656	-74.3569	168.03	0.0991909	12.8518	180.102	-3.97295	37.6829	142.934	5.06421	38.8794	
172	1.43333	120.858	-19.3328	46.5475	101.496	-21.8608	26.6059	78.2031	-19.4344	4.89536	64.533	-19.3965	-10.3521	105.775	0.64904	-24.2057	90.0198	-7.47864	-47.803	79.2724	-17.1483	-71.1091	121.663	-12.051	-37.7859	107.911	-38.2159	-54.6589	106.95	-71.8943	-53.7952	147.665	-10.4744	-39.3633	142.057	-16.4418	-60.6286	129.163	-28.3218	-84.3643	178.642	-21.1748	-27.9971	179.592	-21.5801	-50.3054	179.295	-18.8057	-72.7963	168.729	-0.441731	11.3534	178.986	-4.07198	38.3208	147.324	4.69946	37.0406	
